<svg id="Layer_1" enable-background="new 0 0 512 512" height="512" viewBox="0 0 512 512" width="512" xmlns="http://www.w3.org/2000/svg"><g><path d="m502.571 153.706-241-96.4c-3.576-1.431-7.565-1.431-11.142 0l-241 96.4c-5.695 2.278-9.429 7.794-9.429 13.927v273.133c0 8.284 6.716 15 15 15h482c8.284 0 15-6.716 15-15v-273.133c0-6.133-3.734-11.649-9.429-13.927zm-20.571 272.061h-452v-155.645l220.429 88.172c3.576 1.431 7.565 1.431 11.142 0l220.429-88.172zm-112.276-143.045-58.609 23.443c.024-.654.051-1.308.051-1.965 0-30.419-24.748-55.167-55.167-55.167s-55.167 24.748-55.167 55.167c0 .656.027 1.311.051 1.965l-58.609-23.443c24.727-14.046 42.589-38.822 47.212-67.955h133.024c4.625 29.133 22.487 53.909 47.214 67.955zm-16.653-67.955h48.596v48.596c-24-5.661-42.936-24.596-48.596-48.596zm-71.904 89.433c0 6.088-2.132 11.811-6.053 16.365l-19.114 7.646-19.113-7.646c-3.921-4.555-6.053-10.277-6.053-16.365 0-13.877 11.29-25.167 25.167-25.167s25.166 11.29 25.166 25.167zm-170.834-40.837v-48.596h48.596c-5.66 24-24.596 42.935-48.596 48.596zm371.667-25.552-50.333 20.133v-58.178c0-8.284-6.716-15-15-15h-321.334c-8.284 0-15 6.716-15 15v58.178l-50.333-20.133v-60.022l226-90.4 226 90.4z"/><path d="m368.467 391.5h64.267c8.284 0 15-6.716 15-15s-6.716-15-15-15h-64.267c-8.284 0-15 6.716-15 15s6.716 15 15 15z"/></g></svg>